<?xml version="1.0" encoding="UTF-8" standalone="no"?>
<!DOCTYPE svg PUBLIC "-//W3C//DTD SVG 1.1//EN" "http://www.w3.org/Graphics/SVG/1.1/DTD/svg11.dtd">
<svg width="100%" height="100%" viewBox="0 0 250 250" version="1.1" xmlns="http://www.w3.org/2000/svg" xmlns:xlink="http://www.w3.org/1999/xlink" xml:space="preserve" xmlns:serif="http://www.serif.com/" style="fill-rule:evenodd;clip-rule:evenodd;stroke-linecap:round;stroke-linejoin:round;stroke-miterlimit:1.5;">
    <g id="Power-Plant" serif:id="Power Plant" transform="matrix(0.836442,0,0,0.836442,19.3055,38.6619)">
        <path d="M53.723,25.424L187.5,25.424C187.5,25.424 176.888,65.174 180.539,84.746C187.096,119.905 226.846,236.38 226.846,236.38L25.878,236.38C25.878,236.38 58.162,119.603 62.803,84.443C65.407,64.71 53.723,25.424 53.723,25.424Z" style="fill:rgb(217,217,217);stroke:black;stroke-width:2.39px;"/>
    </g>
    <g id="Steam">
        <g transform="matrix(1,0,0,1,17.2518,1.51332)">
            <path d="M67.343,47.821C69.585,43.266 74.071,34.157 80.054,29.964C86.461,25.474 97.446,24.522 105.781,20.884C114.911,16.899 128.195,9.668 134.837,6.053" style="fill:none;stroke:rgb(204,204,204);stroke-width:5px;"/>
        </g>
        <g transform="matrix(1,0,0,1,20.8838,1.81598)">
            <path d="M79.752,47.821C82.728,44.273 88.68,37.177 94.28,36.017C99.879,34.857 107.345,43.18 113.347,40.86C119.35,38.539 124.243,27.593 130.297,22.094C136.226,16.708 145.187,10.816 149.667,7.869" style="fill:none;stroke:rgb(204,204,204);stroke-width:5px;"/>
        </g>
        <g transform="matrix(1,0,0,1,16.6465,0.302663)">
            <path d="M121.822,50.545C128.312,49.721 141.293,48.073 146.338,44.189C151.065,40.549 148.073,31.652 152.088,27.24C157.183,21.64 170.332,14.276 176.907,10.593" style="fill:none;stroke:rgb(204,204,204);stroke-width:5px;"/>
        </g>
        <g transform="matrix(1,0,0,1,5.75061,1.51332)">
            <path d="M163.287,50.847C172.232,49.25 190.123,46.055 193.251,42.373C196.378,38.69 179.015,33.785 182.052,28.753C185.432,23.154 205.408,12.006 213.529,8.777C218.876,6.652 226.813,8.472 230.781,9.383" style="fill:none;stroke:rgb(204,204,204);stroke-width:5px;"/>
        </g>
        <g transform="matrix(1,0,0,1,12.7119,5.44794)">
            <path d="M60.079,45.097C59.894,37.984 59.524,23.759 63.408,17.554C67.292,11.35 76.5,10.584 83.384,7.869C90.547,5.044 101.106,2.085 106.386,0.605" style="fill:none;stroke:rgb(204,204,204);stroke-width:5px;"/>
        </g>
    </g>
    <g id="Nuclear-Logo" serif:id="Nuclear Logo" transform="matrix(0.656121,0,0,0.656121,42.9849,59.4034)">
        <g transform="matrix(1.30676,0,0,1.30676,-32.9065,-43.1032)">
            <circle cx="120.838" cy="165.179" r="43.508" style="fill:rgb(255,229,0);stroke:black;stroke-width:3.5px;"/>
        </g>
        <g id="Nuclear-Icon" serif:id="Nuclear Icon" transform="matrix(1,0,0,1,-0.87982,0)">
            <g transform="matrix(0.73777,0,0,0.965676,33.4468,5.69624)">
                <path d="M147.851,131.356C145.682,124.798 132.667,121.772 125.151,121.671C117.635,121.57 105.075,124.344 102.754,130.751C100.434,137.157 105.126,165.775 111.229,160.109C115.6,156.05 129.354,154.075 138.166,161.017C144.261,165.819 150.02,137.914 147.851,131.356Z" style="stroke:black;stroke-width:5.32px;"/>
            </g>
            <g transform="matrix(-0.360015,0.643968,-0.842897,-0.471228,314.848,172.383)">
                <path d="M147.851,131.356C145.682,124.798 132.667,121.772 125.151,121.671C117.635,121.57 105.075,124.344 102.754,130.751C100.434,137.157 105.126,165.775 111.229,160.109C115.6,156.05 129.354,154.075 138.166,161.017C144.261,165.819 150.02,137.914 147.851,131.356Z" style="stroke:black;stroke-width:5.32px;"/>
            </g>
            <g transform="matrix(-0.437654,-0.593939,0.777414,-0.57285,46.0023,344.141)">
                <path d="M147.851,131.356C145.682,124.798 132.667,121.772 125.151,121.671C117.635,121.57 105.075,124.344 102.754,130.751C100.434,137.157 105.126,165.775 111.229,160.109C115.6,156.05 129.354,154.075 138.166,161.017C144.261,165.819 150.02,137.914 147.851,131.356Z" style="stroke:black;stroke-width:5.32px;"/>
            </g>
            <g transform="matrix(0.888,0,0,0.888,13.2609,10.3517)">
                <circle cx="125.832" cy="182.279" r="9.458" style="stroke:black;stroke-width:5.15px;"/>
            </g>
        </g>
    </g>
</svg>
